<?xml version="1.0" encoding="utf-8"?>
<!-- Generator: Adobe Illustrator 28.0.0, SVG Export Plug-In . SVG Version: 6.00 Build 0)  -->
<svg version="1.1" id="Layer_1" xmlns="http://www.w3.org/2000/svg" xmlns:xlink="http://www.w3.org/1999/xlink" x="0px" y="0px"
	 viewBox="0 0 1468.8 864" style="enable-background:new 0 0 1468.8 864;" xml:space="preserve">
<style type="text/css">
	.st0{fill:none;stroke:#FF0000;stroke-width:0.28;stroke-linecap:round;stroke-miterlimit:11.34;}
	
		.st1{fill-rule:evenodd;clip-rule:evenodd;fill:#777777;stroke:#777777;stroke-width:2.01;stroke-linecap:round;stroke-miterlimit:11.34;}
</style>
<g id="svgGroup">
	<path id="Back_outsideCutPath" vector-effect="non-scaling-stroke" class="st0" d="M1058.8,43.1h-17v-8.5h-17v8.5h-17v-8.5h-17v8.5
		h-17v-8.5h-17v8.5h-17v-8.5h-17v8.5h-17v-8.5h-17v8.5h-17v-8.5h-17v8.5h-17v-8.5h-17v8.5h-17v-8.5h-17v8.5h-17v-8.5h-17v8.5h-17
		v-8.5h-17v8.5h-17v-8.5h-17v8.5h-17v-8.5h-17v8.5h-17v-8.5h-17v8.5h-17v-8.5h-28.6v28.6h8.5v17h-8.5v17h8.5v17h-8.5v17h8.5v17h-8.5
		v17h8.5v17h-8.5v17h8.5v17h-8.5v17h8.5v17h-8.5v17h8.5v17h-8.5v17h8.5v17h-8.5v17h8.5v17h-8.5v17h8.5v17h-8.5v17h8.5v17h-8.5v17
		h8.5v17h-8.5v17h8.5v17h-8.5v17h8.5v17h-8.5v17h8.5v17h-8.5v17h8.5v17h-8.5v17h8.5v17h-8.5v17h8.5v17h-8.5v28.6h253.7v-322h8.5
		v321.7h253.7v-28.6h-8.5v-17h8.5v-17h-8.5v-17h8.5v-17h-8.5v-17h8.5v-17h-8.5v-17h8.5v-17h-8.5v-17h8.5v-17h-8.5v-17h8.5v-17h-8.5
		v-17h8.5v-17h-8.5v-17h8.5v-17h-8.5v-17h8.5v-17h-8.5v-17h8.5v-17h-8.5v-17h8.5v-17h-8.5v-17h8.5v-17h-8.5v-17h8.5v-17h-8.5v-17
		h8.5v-17h-8.5v-17h8.5v-17h-8.5v-17h8.5v-17h-8.5v-17h8.5v-17h-8.5v-17h8.5V34.3h-28.6v8.8L1058.8,43.1L1058.8,43.1z"/>
	<path id="Back_labelLayer" vector-effect="non-scaling-stroke" class="st1" d="M757.5,350.1h-0.4c-1.4,2-3.6,4.7-6.6,8.1
		l-17.8,18.9h-9.9l22.4-23.5l-23.9-31.7h10.1l19.5,26.1l6.3-5.4v-20.7h8.3v78.4h-8.3v-43.2c0-1.7,0.2-4,0.4-6.8
		C757.5,350.3,757.5,350.2,757.5,350.1L757.5,350.1z M937.4,321.9v73.7h-20.8c-2.4,0-4.8-0.1-7.2-0.3c-6.1-0.6-10.8-1.9-14-4.1
		c-3.3-2.2-5.5-5.7-6.2-9.6c-0.3-1.4-0.4-2.9-0.4-4.3c0-4.4,1.2-8,3.7-10.8c2.3-2.7,5.7-4.5,10.1-5.4c0.2,0,0.4-0.1,0.5-0.1v-0.5
		c-10.4-1.8-16-7-16.7-15.7c-0.1-0.6-0.1-1.3-0.1-1.9c0-2.3,0.3-4.5,0.9-6.7c1-3.4,3-6.5,5.8-8.8c3.7-3.1,8.8-4.9,15-5.4
		c1.2-0.1,2.4-0.1,3.6-0.1H937.4L937.4,321.9z M831.7,321.9h6.2l1.7,7.9h0.4c0.9-1.1,1.8-2.2,2.8-3.1c1.8-1.8,3.6-3.1,5.4-3.9
		c1.3-0.6,2.6-1,4-1.3c1.3-0.3,2.7-0.4,4.2-0.5c0.7,0,1.4-0.1,2.1-0.1c1.8,0,3.5,0.2,5.2,0.5c3.1,0.6,5.6,1.9,7.6,3.7
		c2.1,1.9,3.5,4.5,4.1,7.2c0.4,1.6,0.5,3.2,0.5,4.8c0,10.8-8.4,16.6-25.1,17.5c-0.6,0-1.1,0.1-1.7,0.1l-9.4,0.3v3.4
		c0,2.6,0.3,4.9,1,6.7c0.4,1.1,1,2.1,1.8,2.9c1.9,2.1,4.8,3.1,8.9,3.1c3.7,0,7.8-0.9,12.3-2.7c1.1-0.5,2.2-1,3.3-1.5l2.6,6.4
		c-2.4,1.3-4.9,2.3-7.4,3.1c-0.5,0.1-1,0.3-1.5,0.4c-3.2,0.8-6.5,1.3-9.7,1.3c-4.1,0-7.6-0.6-10.4-1.7c-1.6-0.6-3-1.5-4.3-2.7
		c-1.5-1.5-2.7-3.3-3.4-5.3c-0.5-1.4-0.9-3.1-1.1-4.9c-0.2-1.3-0.2-2.6-0.2-3.9L831.7,321.9L831.7,321.9L831.7,321.9z M777.6,375.2
		l2.6-7.1c1.3,0.5,2.7,1,4,1.3c0.7,0.2,1.3,0.3,2,0.5c0.9,0.2,1.7,0.4,2.6,0.5c0.9,0.1,1.7,0.2,2.4,0.2h0.7c2.6,0.1,5.1-0.4,7.5-1.4
		c5.3-2.3,8.3-7.5,9.1-15.5c0.1-1.5,0.2-3,0.2-4.5c0-4.5-0.6-8.2-1.8-11.3c-0.6-1.5-1.4-3-2.3-4.3c-2.1-2.8-5.2-4.6-8.6-5.1
		c-1.2-0.2-2.4-0.3-3.6-0.3c-3.3,0-6.5,0.5-9.7,1.4c-1.5,0.4-3,1-4.5,1.6v-7.4c3.2-1.6,7.1-2.6,11.6-2.8c0.8,0,1.5-0.1,2.3-0.1
		c2.6,0,5.1,0.3,7.6,0.9c4.2,1,8.1,3.3,11,6.5c2.3,2.7,4.1,5.8,5,9.2c0.7,2.4,1.2,5.1,1.4,8.1c0.1,1.2,0.1,2.4,0.1,3.6
		c0,2.8-0.2,5.6-0.7,8.4c-1,5.3-3,9.6-6,13c-3.1,3.5-7.3,5.9-11.9,6.8c-2.4,0.5-4.8,0.8-7.2,0.7c-2.7,0-5.3-0.3-8-0.9
		c-0.8-0.2-1.6-0.4-2.3-0.6C780,376.2,778.7,375.8,777.6,375.2L777.6,375.2L777.6,375.2z M914.2,356.7H929v-27.6h-15.4
		c-3.7,0-6.8,0.4-9.4,1.3c-1.4,0.5-2.8,1.2-4,2.1c-1.9,1.5-3.3,3.6-3.9,6c-0.3,1.3-0.5,2.6-0.6,4.1v0.7c0,1.3,0.1,2.6,0.5,3.9
		c0.6,2.5,2.1,4.7,4.2,6.1c2.9,2.1,7.4,3.1,13.3,3.2C913.7,356.7,913.9,356.7,914.2,356.7L914.2,356.7z M929,388.1V364h-14.1
		c-1.5,0-3,0.1-4.5,0.2c-3,0.3-5.4,0.9-7.2,1.8c-0.5,0.2-0.9,0.5-1.4,0.8c-2.7,1.9-4,5.1-4,9.6c0,1.2,0.1,2.4,0.4,3.5
		c0.6,2.3,2,4.2,4,5.4c2.6,1.6,6.5,2.5,11.8,2.7h2.3L929,388.1L929,388.1z M840,344v5l8.4-0.4c5.6-0.2,9.8-0.9,12.8-2.3
		c0.6-0.2,1.1-0.5,1.6-0.8c2.3-1.4,3.9-3.8,4.3-6.5c0.1-0.7,0.2-1.4,0.2-2.1c0-0.9-0.1-1.8-0.3-2.7c-0.4-1.7-1.2-3.1-2.4-4.2
		c-1-0.8-2.2-1.5-3.4-1.8c-1.3-0.4-2.7-0.6-4.3-0.6c-4.5,0-8.2,1.1-11,3.2c-0.4,0.3-0.9,0.7-1.3,1.1c-2,1.9-3.3,4.3-3.9,7
		C840.2,340.5,840,342.2,840,344L840,344L840,344z"/>
	<path id="Right_outsideCutPath" vector-effect="non-scaling-stroke" class="st0" d="M514.8,42.9h-17v-8.5h-17v8.5h-17v-8.5h-17v8.5
		h-17v-8.5h-17v8.5h-17v-8.5h-17v8.5h-17v-8.5h-17v8.5h-17v-8.5h-17v8.5h-17v-8.5h-17v8.5h-17v-8.5h-17v8.5h-17v-8.5h-17v8.5h-17
		v-8.5h-17v8.5h-17v-8.5h-17v8.5h-17v-8.5h-17v8.5h-17v-8.5h-17v8.5H52.7V63h-8.5v17h8.5v17h-8.5v17h8.5v17h-8.5v17h8.5v17h-8.5v17
		h8.5v17h-8.5v17h8.5v17h-8.5v17h8.5v17h-8.5v17h8.5v17h-8.5v17h8.5v17h-8.5v17h8.5v17h-8.5v17h8.5v17h-8.5v17h8.5v17h-8.5v17h8.5
		v17h-8.5v17h8.5v17h-8.5v17h8.5v17h-8.5v17h8.5v17h-8.5v17h8.5v17h-8.5v17h8.5v17h-8.5v17h8.5v28.6h245.2V364.9h8.5v321.7h245.2
		V658h8.5v-17h-8.5v-17h8.5v-17h-8.5v-17h8.5v-17h-8.5v-17h8.5v-17h-8.5v-17h8.5v-17h-8.5v-17h8.5v-17h-8.5v-17h8.5v-17h-8.5v-17
		h8.5v-17h-8.5v-17h8.5v-17h-8.5v-17h8.5v-17h-8.5v-17h8.5v-17h-8.5v-17h8.5v-17h-8.5v-17h8.5v-17h-8.5v-17h8.5v-17h-8.5v-17h8.5
		v-17h-8.5v-17h8.5v-17h-8.5v-17h8.5V97h-8.5V80h8.5V63h-8.5V42.9h-20.1v-8.5h-17v8.5H514.8z"/>
	<path id="Right_labelLayer" vector-effect="non-scaling-stroke" class="st1" d="M228.1,333.6h8.4v35.7c0,1.2,0.1,2.5,0.3,3.7
		c0.2,1.3,0.5,2.5,1,3.5c0.4,1.1,1.1,2,1.8,2.9c1.1,1.1,2.4,2,3.9,2.5c1.6,0.6,3.5,0.9,5.8,0.9c1.6,0,3.2-0.1,4.7-0.4
		c1.7-0.3,3.3-0.9,4.6-1.6c1.3-0.7,2.4-1.6,3.3-2.7c2.4-2.9,3.8-7.5,4-13.7v-30.7h8.4v78.4h-8.4v-23.7c0-1,0-1.9,0.1-2.9
		c0-0.9,0.1-1.7,0.2-2.5c0-0.6,0.1-1.1,0.2-1.7H266c-1.5,2.3-3.5,4.3-5.9,5.6c-0.4,0.2-0.8,0.4-1.2,0.6c-2.2,1.1-4.6,1.8-7,2.1
		c-1.1,0.1-2.2,0.2-3.4,0.2c-1.9,0-3.8-0.1-5.7-0.4c-4-0.7-7.1-2.1-9.5-4.4c-1.6-1.6-2.8-3.5-3.6-5.6c-0.6-1.6-1-3.3-1.2-5.3
		c-0.2-1.5-0.3-2.9-0.3-4.4L228.1,333.6L228.1,333.6L228.1,333.6z M304.8,388.8h-19.1v-5.3l10.2-1.2c-0.4-0.6-0.8-1.1-1.2-1.8
		c-0.5-0.8-0.9-1.8-1.3-2.9c-0.5-1.2-0.8-2.5-1-3.8c-0.1-0.9-0.2-1.7-0.2-2.6c0-2,0.3-4,0.9-5.9c0.9-2.7,2.5-5.1,4.7-7
		c2.1-1.8,4.6-3.1,7.3-3.8c1.8-0.5,3.9-0.8,6-0.9h1.9c1,0,2.1,0.1,3.1,0.2c0.5,0.1,1,0.1,1.5,0.2c0.8-0.4,1.7-1,2.4-1.6
		c0.8-0.7,1.5-1.4,2-2.1c0.6-1,1-2.2,1-3.4c0-1.5-0.6-2.6-1.9-3.4c-0.4-0.2-0.8-0.4-1.3-0.5c-1.2-0.4-2.9-0.5-5.1-0.5h-9.8
		c-6,0-10.6-1.3-13.8-3.8c-2.5-1.9-4.1-4.7-4.5-7.8c-0.2-1.1-0.3-2.1-0.3-3.2c0-2.1,0.3-4.3,1-6.3c1.1-3,3.1-5.6,6-7.5
		c0.1-0.1,0.2-0.1,0.3-0.2c2-1.3,4.2-2.3,6.5-2.9c2.1-0.6,4.5-1.1,7.1-1.4s5.3-0.5,7.9-0.4c4.7,0,8.8,0.6,12.1,1.7
		c1.6,0.6,3.2,1.3,4.6,2.3c1.8,1.2,3.3,2.8,4.3,4.7c1,1.9,1.6,4.2,1.6,6.7c0,3.4-1.1,6.3-3.2,8.7c-1.4,1.6-3.1,2.8-5,3.7
		c-1.3,0.6-2.7,1-4.1,1.3c1.3,0.6,2.5,1.5,3.4,2.7c0.1,0.1,0.1,0.2,0.2,0.2c0.9,1.2,1.4,2.7,1.4,4.2v0.5c0,2-0.5,3.8-1.6,5.3
		c-0.5,0.6-1,1.2-1.6,1.8c-0.6,0.5-1.2,1-1.9,1.6c-0.5,0.4-1,0.7-1.6,1c2.9,1.2,5.2,3.2,7,6s2.7,6,2.7,9.7c0,1.9-0.2,3.8-0.6,5.7
		c-0.7,3.2-2.4,6.1-4.8,8.3c-2,1.7-4.3,3-6.8,3.8s-5.4,1.2-8.6,1.2C309.7,389.8,307.1,389.5,304.8,388.8L304.8,388.8z M395.5,364.2
		h15.4v-30.6h8.6v73.7h-20.2c-8.7,0-15.2-1.6-19.5-4.8c-0.2-0.1-0.3-0.3-0.5-0.4c-2.9-2.4-4.9-5.6-5.8-9.3c-0.5-1.9-0.7-3.9-0.7-6.1
		v-0.2c0-2.9,0.5-5.8,1.6-8.6c2.2-5.2,6.6-8.9,13.2-11.2l-20-33.1h10.1L395.5,364.2L395.5,364.2z M185.5,340.5v-6.4
		c0.3-0.1,0.6-0.3,1-0.4c0.8-0.3,1.8-0.5,3-0.7c0.8-0.1,1.6-0.2,2.4-0.3c0.8-0.1,1.6-0.1,2.4-0.1c8.5,0,13.6,3.6,15.4,10.7
		c0.5,2,0.7,4.1,0.7,6.1v32.9h7.9v4l-7.9,3.5l-3.5,11.8h-4.8v-12.8h-16v-6.5h16v-32.5c0-1-0.1-2-0.2-3c-0.2-1.1-0.5-2-0.9-2.9
		c-0.3-0.6-0.7-1.3-1.2-1.8c-1.6-1.8-3.7-2.7-6.5-2.7c-1.3,0-2.7,0.1-4,0.3H189c-0.4,0.1-0.8,0.1-1.2,0.2
		C186.7,340.1,186.1,340.3,185.5,340.5L185.5,340.5z M348.5,388.8v-55.2h8.4v55.2H348.5z M410.8,399.7v-28.2H399
		c-1.6,0-3.2,0.1-4.7,0.3c-3.7,0.5-6.6,1.6-8.6,3.3c-1.8,1.5-3,3.6-3.6,5.8c-0.3,1.3-0.5,2.6-0.6,4.1v0.8c0,1.3,0.1,2.6,0.4,3.9
		c0.6,2.9,1.9,5.1,3.9,6.6c2.6,2,6.7,3,12.2,3.2h12.7L410.8,399.7L410.8,399.7L410.8,399.7z M307.6,334.8h10c1.2,0,2.3-0.1,3.5-0.3
		c1.3-0.2,2.5-0.6,3.5-1.2c0.7-0.3,1.3-0.8,1.9-1.3c1.5-1.3,2.5-3.1,2.9-5c0.2-0.9,0.3-1.9,0.3-2.8c0-3-1.3-5.3-3.8-6.8
		s-6.1-2.3-10.8-2.3H315c-1.8,0-3.7,0.1-5.5,0.2c-3.7,0.4-6.7,1.1-9,2.3c-0.4,0.2-0.8,0.4-1.1,0.6c-3.4,2.1-5.1,4.9-5.1,8.5
		c0,0.8,0.1,1.5,0.2,2.2c0.2,0.9,0.5,1.6,0.9,2.3s1,1.3,1.7,1.7c0.6,0.4,1.2,0.6,1.9,0.8C301,334.5,303.8,334.8,307.6,334.8
		L307.6,334.8z M325.1,371.1c0-1.1-0.1-2.3-0.3-3.4c-0.5-2.2-1.5-4-2.9-5.3c-1.2-1.1-2.7-1.9-4.4-2.4c-1.1-0.3-2.3-0.5-3.6-0.6h-1.1
		c-6.4,0-10.3,2.5-11.7,7.4c-0.4,1.5-0.6,3-0.5,4.5c0,1.7,0.2,3.3,0.6,4.9c1.4,5,5.4,7.5,11.8,7.5c1.2,0,2.4-0.1,3.6-0.3
		c1.5-0.3,2.7-0.8,3.9-1.5c0.6-0.4,1.1-0.8,1.6-1.3c1.1-1.1,2-2.6,2.4-4.1c0.3-1.1,0.6-2.2,0.7-3.5
		C325.1,372.3,325.1,371.7,325.1,371.1L325.1,371.1z M356.1,408c0.4-0.3,0.7-0.8,0.9-1.2c0.4-0.8,0.5-1.8,0.5-3v-0.9
		c-0.1-0.6-0.2-1.1-0.3-1.5c-0.2-0.7-0.6-1.2-1.1-1.7s-1.1-0.8-1.7-1.1c-0.6-0.2-1.2-0.3-1.8-0.3c-1.3,0-2.5,0.5-3.5,1.4
		c-0.3,0.3-0.6,0.7-0.8,1.1c-0.2,0.5-0.4,1-0.5,1.6c-0.1,0.5-0.1,1.1-0.1,1.6v0.9c0.1,1.4,0.6,2.5,1.4,3.3c0.9,0.9,2.2,1.4,3.5,1.4
		h0.4C354.1,409.2,355.2,408.8,356.1,408L356.1,408z"/>
</g>
</svg>
