<?xml version="1.0" encoding="UTF-8"?>
<svg id="Layer_1" data-name="Layer 1" xmlns="http://www.w3.org/2000/svg" viewBox="0 0 1468.8 864">
  <defs>
    <style>
      .cls-1 {
        fill: none;
        stroke: red;
        stroke-width: .28px;
      }

      .cls-1, .cls-2 {
        stroke-linecap: round;
        stroke-miterlimit: 11.34;
      }

      .cls-2 {
        fill: #777;
        fill-rule: evenodd;
        stroke: #777;
        stroke-width: 2.01px;
      }
    </style>
  </defs>
  <g id="svgGroup">
    <path id="Bottom_outsideCutPath" data-name="Bottom outsideCutPath" class="cls-1" d="m61.9,16.6v8.5h-28.6v20.1h8.5v17h-8.5v17h8.5v17h-8.5v17h8.5v17h-8.5v17h8.5v17h-8.5v17h8.5v17h-8.5v17h8.5v17h-8.5v17h8.5v17h-8.5v17h8.5v17h-8.5v17h8.5v17h-8.5v17h8.5v17h-8.5v17h8.5v17h-8.5v17h8.5v17h-8.5v17h8.5v17h-8.5v17h8.5v17h-8.5v20.1h28.6v8.5h17v-8.5h17v8.5h17v-8.5h17v8.5h17v-8.5h17v8.5h17v-8.5h17v8.5h17v-8.5h17v8.5h17v-8.5h17v8.5h17v-8.5h17v8.5h17v-8.5h17v8.5h17v-8.5h17v8.5h17v-8.5h17v8.5h17v-8.5h17v8.5h17v-8.5h17v8.5h17v-8.5h17v8.5h17v-8.5h28.6v-20.1h-8.5v-17h8.5v-17h-8.5v-17h8.5v-17h-8.5v-17h8.5v-17h-8.5v-17h8.5v-17h-8.5v-17h8.5v-17h-8.5v-17h8.5v-17h-8.5v-17h8.5v-17h-8.5v-17h8.5v-17h-8.5v-17h8.5v-17h-8.5v-17h8.5v-17h-8.5v-17h8.5v-17h-8.5v-17h8.5v-17h-8.5v-17h8.5v-17h-8.5v-17h8.5v-20.1h-28.6v-8.5h-17v8.5h-17v-8.5h-17v8.5h-17v-8.5h-17v8.5h-17v-8.5h-17v8.5h-17v-8.5h-17v8.5h-17v-8.5h-17v8.5h-17v-8.5h-17v8.5h-17v-8.5h-17v8.5h-17v-8.5h-17v8.5h-17v-8.5h-17v8.5h-17v-8.5h-17v8.5h-17v-8.5h-17v8.5h-17v-8.5h-17v8.5h-17v-8.5h-17Z" vector-effect="non-scaling-stroke"/>
    <path id="Bottom_labelLayer" data-name="Bottom labelLayer" class="cls-2" d="m120.3,238.2h8.4v35.9c0,4.4.9,7.7,2.8,9.9,1.6,1.9,4.1,3,7.3,3.2.5,0,1,.1,1.4.1,3.7,0,6.6-.7,8.9-2.2,1-.6,1.9-1.4,2.6-2.3,1-1.3,1.8-2.7,2.3-4.2.9-2.6,1.4-5.8,1.4-9.6v-30.8h8.4v35.9c0,4.4.9,7.7,2.8,9.9,1.1,1.2,2.5,2.1,4,2.6,1,.3,2,.5,3.2.6.5,0,1,.1,1.6.1,3.7,0,6.6-.8,8.9-2.3,1-.7,1.9-1.5,2.6-2.4,2.2-2.8,3.4-7.3,3.6-13.5v-31h8.4v55.2h-6.6l-1.4-7.6h-.4c-1.6,2.7-3.9,4.9-6.7,6.3-2.9,1.5-6.1,2.3-9.6,2.3-2.1,0-4.1-.2-6.2-.6-5.2-1.2-8.8-4.1-10.8-8.7h-.4c-1.6,2.7-3.8,5-6.6,6.5-.2.1-.4.2-.6.3-3.1,1.7-6.7,2.5-10.7,2.5-1.8,0-3.5-.1-5.3-.4-2-.4-3.7-.9-5.2-1.7-1.3-.7-2.5-1.6-3.5-2.6-1.4-1.5-2.4-3.2-3.1-5.1-.6-1.5-1-3.2-1.2-5s-.4-3.5-.3-5.3v-36h0Zm341.9,0v73.7h-20.8c-2.4,0-4.8-.1-7.2-.3-6.1-.6-10.8-1.9-14-4.1-3.3-2.2-5.5-5.7-6.2-9.6-.3-1.4-.4-2.9-.4-4.3,0-4.4,1.2-8,3.7-10.8,2.3-2.7,5.7-4.5,10.1-5.4.2,0,.4-.1.5-.1v-.5c-10.4-1.8-16-7-16.7-15.7-.1-.6-.1-1.3-.1-1.9,0-2.3.3-4.5.9-6.7,1-3.4,3-6.5,5.8-8.8,3.7-3.1,8.8-4.9,15-5.4,1.2-.1,2.4-.1,3.6-.1h25.8Zm-153.3,6.9v-6.4c.3-.2.6-.3,1-.4.8-.3,1.8-.5,3-.7l2.4-.3c.9-.1,1.6-.1,2.4-.1,8.5,0,13.6,3.6,15.4,10.7.5,2,.7,4.1.7,6.1v32.8h7.9v4l-7.9,3.5-3.5,11.8h-5v-12.8h-16v-6.5h16v-32.5c0-1-.1-2-.2-3-.2-1.1-.5-2.1-.9-2.9-.3-.6-.7-1.3-1.2-1.8-1.6-1.8-3.7-2.7-6.5-2.7-1.3,0-2.7.1-4,.3h-.3c-.4.1-.8.1-1.2.2-.9.4-1.6.6-2.1.7Zm-36.5,0v-6.4c.3-.2.6-.3,1-.4.8-.3,1.8-.5,3-.7l2.4-.3c.8-.1,1.6-.1,2.4-.1,8.5,0,13.6,3.6,15.4,10.7.5,2,.7,4.1.7,6.1v32.8h7.9v4l-7.9,3.5-3.5,11.8h-4.8v-12.8h-16v-6.5h16v-32.5c0-1-.1-2-.2-3-.2-1.1-.5-2.1-.9-2.9-.3-.6-.7-1.3-1.2-1.8-1.6-1.8-3.7-2.7-6.5-2.7-1.3,0-2.7.1-4,.3h-.3c-.4.1-.8.1-1.2.2-1,.4-1.7.6-2.3.7Zm77.3,12.4c-.5,2.8-.8,5.6-.8,8.4v1.3c.1,3.1.5,5.9,1.1,8.5,1,4.1,2.9,7.9,5.7,11,2.7,3.1,6.2,5.4,10.2,6.6,2.7.8,5.5,1.2,8.2,1.2,2,0,3.9-.2,5.8-.5,5-.8,9.5-3.3,12.9-7,1.1-1.2,2-2.5,2.8-3.9,1.5-2.5,2.5-5.4,3.2-8.7.5-2.8.8-5.6.8-8.4,0-2.3-.2-4.5-.5-6.8-.5-2.9-1.3-5.8-2.6-8.4-2.1-4.3-5-7.7-8.9-10-1.7-1-3.5-1.8-5.3-2.4-2.5-.7-5.2-1.1-7.8-1.1-8,0-14.3,2.5-18.8,7.6-3,3.3-5,7.5-6,12.6Zm-135.2,0c-.5,2.8-.8,5.6-.8,8.4v1.3c.1,3.1.5,5.9,1.1,8.5,1,4.1,2.9,7.9,5.7,11,2.7,3.1,6.2,5.4,10.2,6.6,2.7.8,5.5,1.2,8.3,1.2,2,0,3.9-.2,5.8-.5,5-.8,9.5-3.3,12.9-7,1.1-1.2,2-2.5,2.8-3.9,1.5-2.5,2.5-5.4,3.1-8.7.5-2.8.8-5.6.8-8.4,0-2.3-.2-4.5-.5-6.8-.5-2.9-1.3-5.8-2.6-8.4-2.1-4.3-5-7.7-8.9-10-1.7-1-3.5-1.8-5.3-2.4-2.5-.7-5.2-1.1-7.8-1.1-8,0-14.3,2.5-18.8,7.6-3,3.3-5,7.5-6,12.6Zm176.5,8.4c0-2-.1-4-.4-6s-.8-3.9-1.4-5.6c-.6-1.6-1.4-3.1-2.4-4.5-2.2-2.9-5.4-4.7-8.9-5.3-1.2-.2-2.3-.3-3.5-.3-1.7,0-3.5.2-5.1.6-2.9.8-5.5,2.5-7.3,4.9-2.1,2.7-3.4,6.4-4,11-.2,1.7-.3,3.4-.3,5.1,0,7,1.4,12.4,4.3,16,2.1,2.7,5.2,4.5,8.6,5.1,1.3.2,2.7.4,4,.4,1.7,0,3.3-.2,5-.6,3-.7,5.6-2.4,7.4-4.8,1.2-1.6,2.1-3.3,2.7-5.2.5-1.6.9-3.4,1.2-5.3,0-1.8.1-3.6.1-5.5Zm-135.2,0c0-2-.1-4-.4-6s-.8-3.9-1.4-5.6c-.6-1.6-1.4-3.1-2.4-4.5-2.2-2.9-5.4-4.7-8.9-5.3-1.2-.2-2.3-.3-3.5-.3-1.7,0-3.5.2-5.1.6-2.9.8-5.5,2.5-7.3,4.9-2.1,2.7-3.4,6.4-4,11-.2,1.7-.3,3.4-.3,5.1,0,7,1.4,12.4,4.3,16,2.1,2.7,5.2,4.5,8.6,5.1,1.3.2,2.7.4,4,.4,1.7,0,3.3-.2,5-.6,3-.7,5.6-2.4,7.4-4.8,1.2-1.6,2.1-3.3,2.7-5.2.5-1.6.9-3.4,1.2-5.3,0-1.8.1-3.6.1-5.5Zm183.1,7.2h14.7v-27.6h-15.4c-3.7,0-6.8.4-9.4,1.3-1.4.5-2.8,1.2-4,2.1-1.9,1.5-3.3,3.6-3.9,6-.3,1.3-.5,2.6-.6,4.1v.7c0,1.3.1,2.6.5,3.9.6,2.5,2.1,4.7,4.2,6.1,2.9,2.1,7.4,3.1,13.3,3.2.1.2.4.2.6.2Zm14.7,31.4v-24.1h-14.1c-1.5,0-3,.1-4.5.2-3,.3-5.4.9-7.2,1.8-.5.2-.9.5-1.4.8-2.7,1.9-4,5.1-4,9.6,0,1.2.1,2.4.4,3.5.6,2.3,2,4.2,4,5.4,2.6,1.6,6.5,2.5,11.8,2.7h2.3l12.7.1h0Z" vector-effect="non-scaling-stroke"/>
  </g>
</svg>