<?xml version="1.0" encoding="UTF-8"?>
<svg id="Layer_1" data-name="Layer 1" xmlns="http://www.w3.org/2000/svg" viewBox="0 0 1468.8 864">
  <defs>
    <style>
      .cls-1 {
        fill: none;
        stroke: red;
        stroke-width: .28px;
      }

      .cls-1, .cls-2 {
        stroke-linecap: round;
        stroke-miterlimit: 11.34;
      }

      .cls-2 {
        fill: #777;
        fill-rule: evenodd;
        stroke: #777;
        stroke-width: 2.01px;
      }
    </style>
  </defs>
  <g id="svgGroup">
    <path id="rowDivider-0_outsideCutPath" data-name="rowDivider-0 outsideCutPath" class="cls-1" d="m569.85,353.5h-8.5v321.7h253.7v-321.7h8.5v321.7h253.7v-321.7h-8.5V31.8h-498.9v321.7h0Z" vector-effect="non-scaling-stroke"/>
    <path id="rowDivider-0_labelLayer" data-name="rowDivider-0 labelLayer" class="cls-2" d="m962.45,314.8h9.9l10.1,32.4c.2.6.3,1.1.5,1.7.7,2.4,1.7,6.3,3.1,11.8h.4c.3-1.4.6-2.8,1-4.2.7-3,1.4-5.5,2-7.6.2-.6.4-1.2.5-1.8l10.4-32.3h9.7l15.1,55.2h-8.8c-.8-3.3-1.7-6.5-2.5-9.8-1.6-6.3-3-11.7-4.2-16.3-.5-1.9-1-3.8-1.4-5.6-.4-1.5-.7-2.9-1.1-4.4-1.2-4.9-1.9-8.3-2.1-10.2h-.4c-.1.7-.3,1.3-.4,2-.3,1.5-.8,3.3-1.3,5.3q0,.1-.1.2c-.2.7-.4,1.4-.6,2.2-.5,1.6-.9,3.1-1.3,4.2-.1.3-.2.6-.3.8l-10.1,31.7h-9.1l-9.9-31.7c-.6-1.9-1.2-3.7-1.7-5.6-.5-1.7-.9-3.3-1.2-4.8-.3-1.4-.6-2.8-.9-4.2h-.4c0,.3-.1.7-.1,1-.1.8-.3,1.7-.6,2.9-.1.6-.3,1.1-.4,1.7-.1.5-.2,1-.4,1.5-1.2,4.6-4.5,17.7-10.1,39.2h-8.7l15.4-55.3Zm-243,0l1.1,7.4h.5c3.2-4.7,8.2-7.7,13.8-8.2,1.2-.1,2.3-.2,3.5-.2,2.5,0,4.9.3,7.3,1,3.8,1.1,7.1,3.3,9.5,6.4,3.2,4,5.2,9.3,5.8,16,.2,1.7.2,3.3.2,5,0,2.8-.2,5.5-.6,8.3-.5,2.9-1.3,5.6-2.4,8-.8,1.8-1.8,3.5-3,5-3.4,4.3-8.5,7-14,7.4-.9.1-1.9.1-2.8.1-2.5,0-5-.3-7.4-1.1-4-1.2-7.4-3.7-9.8-7.1h-.7l.4,4,.2,3.9v22.5h-8.4v-78.4h6.8Zm94.6,0h9.8l21,55.2h-9l-11.9-32.7c-2.7-7.7-4.3-12.6-4.7-14.9h-.4c-.4,1.8-1.5,5.5-3.5,11.1-.5,1.5-1.1,3.1-1.6,4.6-1.8,5.1-4.5,12.5-8.1,22.3-1.2,3.2-2.3,6.4-3.5,9.7h-9l20.9-55.3Zm-162.8,31.4v-5.3h38c-.2-6.5-1.8-11.4-4.9-14.8-2.1-2.3-4.9-3.9-8-4.5-1.7-.4-3.4-.6-5.1-.5-5.7,0-11.3,1.1-16.5,3.3-.4.1-.7.3-1.1.5v-7.5c1.5-.7,3-1.2,4.6-1.7,1.3-.4,2.5-.7,3.8-1,1.2-.2,2.3-.4,3.5-.5,1.1-.1,2.4-.2,3.7-.3h2.4c8.2,0,14.6,2.5,19.3,7.5,2.8,3,4.9,6.8,5.9,10.8.7,2.6,1.1,5.3,1.2,8.4v1.5c0,8.9-2.2,16-6.6,21.2-3.9,4.7-9.5,7.5-15.6,7.8-.7,0-1.4.1-2,.1-2.4,0-4.8-.3-7.2-1-3.6-1-6.8-3.1-9.2-5.9-2.7-3-4.5-6.7-5.3-10.7-.6-2.5-.9-5-.9-7.4Zm264.3-31.4h20.4v73.7h-22.6c-9.6,0-17.4-2.2-23.4-6.6-1.2-.9-2.3-1.8-3.3-2.9-4-4.1-6.8-9.2-8.2-14.7-.8-3.3-1.3-6.9-1.4-10.9v-1c0-3.7.3-7.4,1.1-11,.9-4.4,2.5-8.4,4.6-11.7,1.2-1.9,2.6-3.6,4.2-5.2,3.8-3.6,8.4-6.2,13.4-7.7,3.3-1,7-1.6,11-1.9,1.5-.1,2.9-.1,4.2-.1Zm-398.4,27c-.3,3.3-.5,6.6-.5,10s.2,6.9.6,10.4c.9,7.3,2.8,13.3,5.6,17.8.1.2.2.4.4.6,2.5,3.7,5.8,6.3,9.7,7.8,2.6.9,5.4,1.4,8.2,1.4,1.4,0,2.8-.1,4.1-.3,5.8-.7,11.1-4,14.2-9,.4-.6.8-1.2,1.1-1.9,3.3-6.2,4.9-15.1,4.9-26.7,0-12.4-2.1-21.9-6.2-28.3-.1-.2-.2-.4-.4-.6-2.5-3.7-5.7-6.3-9.6-7.7-2.6-.9-5.4-1.4-8.1-1.4-8.3,0-14.4,3.1-18.4,9.4-2.9,4.4-4.8,10.6-5.6,18.5Zm573,28.6l1.2-7.8c2.3.5,4.3.8,6,.8,4.1,0,7.9-1.7,10.7-4.6l.8-.8c2.6-3,4.2-6.8,4.6-10.7.1-.9.2-1.9.2-2.8v-29.7h8.4v55.2h-6.9l-1-10.2h-.4c-.9,1.6-2,3.1-3.2,4.5s-2.7,2.7-4.2,3.8c-2.8,1.9-6.1,2.9-9.5,2.9-2.5,0-4.7-.2-6.7-.6Zm-484.9,0l1.2-7.8c2.3.5,4.3.8,6,.8,4.1,0,7.9-1.7,10.7-4.6l.8-.8c2.6-3,4.2-6.8,4.6-10.7.1-.9.2-1.9.2-2.8v-29.7h8.4v55.2h-6.9l-1-10.2h-.4c-.9,1.6-2,3.1-3.2,4.5s-2.7,2.7-4.2,3.8c-2.8,1.9-6.1,2.9-9.5,2.9-2.6,0-4.8-.2-6.7-.6Zm309.7,10.7h12.4v-58.8h-10.4c-2.9,0-5.8.2-8.6.7-6,1.1-10.8,3.3-14.4,6.8-2.8,2.8-4.9,6.2-6,10-1.1,3.6-1.7,7.6-1.7,12.3,0,6.6,1.1,12,3.4,16.4,1,2,2.3,3.8,3.9,5.4,4.1,4.1,9.9,6.5,17.3,7.1,1.4,0,2.7.1,4.1.1Zm118-47c-.5,2.8-.8,5.6-.8,8.4v1.3c.1,3.1.5,5.9,1.1,8.5,1,4.1,2.9,7.9,5.7,11,2.7,3.1,6.2,5.4,10.2,6.6,2.7.8,5.5,1.2,8.2,1.2,2,0,3.9-.2,5.8-.5,5-.8,9.5-3.3,12.9-7,1.1-1.2,2-2.5,2.8-3.9,1.5-2.5,2.5-5.4,3.2-8.7.5-2.8.8-5.6.8-8.4,0-2.3-.2-4.5-.5-6.8-.5-2.9-1.3-5.8-2.6-8.4-2.1-4.3-5-7.7-8.9-10-1.7-1-3.5-1.8-5.3-2.4-2.5-.7-5.2-1.1-7.8-1.1-8,0-14.3,2.5-18.8,7.6-3,3.2-5,7.5-6,12.6Zm-476,17.6c0-2.6-.1-5.3-.3-7.9-.5-6.7-1.7-11.9-3.5-15.5-.8-1.6-1.9-3.1-3.3-4.3-2.3-2-5.2-3-8.8-3-5,0-8.8,2-11.3,6.1-.3.4-.5.9-.8,1.4-.8,1.7-1.5,3.5-2,5.4-1.2,4.6-1.8,10.6-1.8,17.9,0,10.6,1.3,18.3,3.8,23.3,2.2,4.4,5.7,6.8,10.3,7.3.6.1,1.2.1,1.8.1,5,0,8.8-2,11.3-6,.3-.4.5-.8.7-1.3,2.1-4.1,3.3-10.1,3.7-18.3.2-1.8.2-3.5.2-5.2Zm296.7,18.3v-55.2h8.4v55.2h-8.4Zm-77.8,0v-55.2h8.4v55.2h-8.4Zm298.4-27.5c0-2-.1-4-.4-6s-.8-3.9-1.4-5.6c-.6-1.6-1.4-3.1-2.5-4.5-2.2-2.9-5.4-4.7-8.9-5.3-1.2-.2-2.3-.3-3.5-.3-1.7,0-3.5.2-5.1.6-2.9.8-5.5,2.5-7.3,4.9-2.1,2.7-3.4,6.4-4,11-.2,1.7-.3,3.4-.3,5.1,0,7,1.4,12.4,4.3,16,2.1,2.7,5.2,4.5,8.6,5.1,1.3.2,2.7.4,4,.4,1.7,0,3.3-.2,5-.6,3-.7,5.6-2.4,7.4-4.8,1.2-1.6,2.1-3.3,2.7-5.2.5-1.6.9-3.4,1.2-5.3.1-1.8.2-3.7.2-5.5Zm-353.2-2v1.8c0,6.6.9,11.7,2.8,15.1.3.6.7,1.1,1.1,1.7,2.3,3,5.9,4.6,10.7,5,.6,0,1.1.1,1.7.1,1.7,0,3.4-.3,5-.8,2.6-.9,4.7-2.6,6.2-4.9,1.9-2.8,3.1-6.5,3.6-11,.2-1.7.3-3.4.3-5.1,0-1.9-.1-3.9-.3-5.8-.5-4.2-1.7-7.6-3.5-10.1-2.1-3-5.5-4.9-9.1-5.3-.7-.1-1.5-.1-2.3-.1-1.5,0-3.1.1-4.6.4-1.7.3-3.2.8-4.5,1.5s-2.5,1.6-3.4,2.8c-2.5,2.8-3.7,7.8-3.7,14.7Zm-31.9,7.2h-28.9c0,1.5.1,3.1.3,4.6.5,3.1,1.6,5.6,3.2,7.5,1.8,2.1,4.2,3.5,6.9,3.9,1,.2,2.1.3,3.2.3,1.6,0,3.2-.2,4.8-.7,2.2-.7,4.3-1.9,5.8-3.7,1.4-1.6,2.6-3.5,3.3-5.5.7-1.9,1.1-4,1.4-6.4Zm-114.3-9.1h24.7v7.7h-24.7v-7.7Zm286.5,50.6c.4-.3.7-.8.9-1.2.4-.8.5-1.8.5-3v-.9c-.1-.6-.2-1.1-.3-1.5-.2-.7-.6-1.2-1.1-1.7s-1.1-.8-1.7-1.1c-.6-.2-1.2-.3-1.8-.3-1.3,0-2.5.5-3.5,1.4-.3.3-.6.7-.8,1.1-.2.5-.4,1-.5,1.6-.1.5-.1,1.1-.1,1.6v.9c.1,1.4.6,2.5,1.4,3.3.9.9,2.2,1.4,3.5,1.4h.4c1.1-.3,2.2-.8,3.1-1.6Zm-77.8,0c.4-.3.7-.8.9-1.2.4-.8.5-1.8.5-3v-.9c-.1-.6-.2-1.1-.3-1.5-.2-.7-.6-1.2-1.1-1.7s-1.1-.8-1.7-1.1c-.6-.2-1.2-.3-1.8-.3-1.3,0-2.5.5-3.5,1.4-.3.3-.6.7-.8,1.1-.2.5-.4,1-.5,1.6-.1.5-.1,1.1-.1,1.6v.9c.1,1.4.6,2.5,1.4,3.3.9.9,2.2,1.4,3.5,1.4h.4c1.1-.3,2.2-.8,3.1-1.6Z" vector-effect="non-scaling-stroke"/>
    <path id="colDivider-0_outsideCutPath" data-name="colDivider-0 outsideCutPath" class="cls-1" d="m42.55,353.5h-8.5v321.7h515.9v-321.7h-8.5V31.8h-245.2v321.7h-8.5V31.8H42.55v321.7h0Z" vector-effect="non-scaling-stroke"/>
    <path id="colDivider-0_labelLayer" data-name="colDivider-0 labelLayer" class="cls-2" d="m135.45,304.4l1.1,7.4h.5c3.2-4.7,8.2-7.7,13.8-8.2,1.2-.1,2.3-.2,3.5-.2,2.5,0,4.9.3,7.3,1,3.8,1.1,7.1,3.3,9.5,6.4,3.2,4,5.2,9.3,5.8,16,.2,1.7.2,3.3.2,5,0,2.8-.2,5.5-.6,8.3-.5,2.9-1.3,5.6-2.4,8-.8,1.8-1.8,3.5-3,5-3.4,4.3-8.5,7-14,7.4-.9.1-1.9.1-2.8.1-2.5,0-5-.3-7.4-1.1-4-1.2-7.4-3.7-9.8-7.1h-.7l.4,4,.2,3.9v22.5h-8.4v-78.4h6.8Zm94.6,0h9.8l21,55.2h-9l-11.9-32.7c-2.7-7.7-4.3-12.6-4.7-14.9h-.4c-.4,1.8-1.5,5.5-3.5,11.1-.5,1.5-1.1,3.1-1.6,4.6-1.8,5.1-4.5,12.5-8.1,22.3-1.2,3.2-2.3,6.4-3.5,9.7h-9l20.9-55.3Zm-162.8,31.4v-5.3h38c-.2-6.5-1.8-11.4-4.9-14.8-2.1-2.3-4.9-3.9-8-4.5-1.7-.4-3.4-.6-5.1-.5-5.7,0-11.3,1.1-16.5,3.3-.4.1-.7.3-1.1.5v-7.5c1.5-.7,3-1.2,4.6-1.7,1.3-.4,2.5-.7,3.8-1,1.2-.2,2.3-.4,3.5-.5,1.1-.1,2.4-.2,3.7-.3h2.4c8.2,0,14.6,2.5,19.3,7.5,2.8,3,4.9,6.8,5.9,10.8.7,2.6,1.1,5.3,1.2,8.4v1.5c0,8.9-2.2,16-6.6,21.2-3.9,4.7-9.5,7.5-15.6,7.8-.7,0-1.4.1-2,.1-2.4,0-4.8-.3-7.2-1-3.6-1-6.8-3.1-9.2-5.9-2.7-3-4.5-6.7-5.3-10.7-.6-2.5-.9-5-.9-7.4Zm264.3-31.4h20.4v73.7h-22.6c-9.6,0-17.4-2.2-23.4-6.6-1.2-.9-2.3-1.8-3.3-2.9-4-4.1-6.8-9.2-8.2-14.7-.8-3.3-1.3-6.9-1.4-10.9v-1c0-3.7.3-7.4,1.1-11,.9-4.4,2.5-8.4,4.6-11.7,1.2-1.9,2.6-3.6,4.2-5.2,3.8-3.6,8.4-6.2,13.4-7.7,3.3-1,7-1.6,11-1.9,1.5-.1,2.9-.1,4.2-.1Zm122.4,53.4l2.6-7.1c1.3.5,2.7,1,4,1.3.7.2,1.3.3,2,.5.9.2,1.7.4,2.6.5s1.7.2,2.4.2h.7c2.6.1,5.1-.4,7.5-1.4,5.3-2.3,8.3-7.5,9.1-15.5.1-1.5.2-3,.2-4.5,0-4.5-.6-8.2-1.8-11.3-.6-1.5-1.4-3-2.3-4.3-2.1-2.8-5.2-4.6-8.6-5.1-1.2-.2-2.4-.3-3.6-.3-3.3,0-6.5.5-9.7,1.4-1.5.4-3,1-4.5,1.6v-7.4c3.2-1.6,7.1-2.6,11.6-2.8.8,0,1.5-.1,2.3-.1,2.6,0,5.1.3,7.6.9,4.2,1,8.1,3.3,11,6.5,2.3,2.7,4.1,5.8,5,9.2.7,2.4,1.2,5.1,1.4,8.1.1,1.2.1,2.4.1,3.6,0,2.8-.2,5.6-.7,8.4-1,5.3-3,9.6-6,13-3.1,3.5-7.3,5.9-11.9,6.8-2.4.5-4.8.8-7.2.7-2.7,0-5.3-.3-8-.9-.8-.2-1.6-.4-2.3-.6-1.1-.4-2.4-.9-3.5-1.4h0Zm-520.8-26.4c-.3,3.3-.5,6.6-.5,10s.2,6.9.6,10.4c.9,7.3,2.8,13.3,5.7,17.8.1.2.2.4.4.6,2.5,3.7,5.8,6.3,9.7,7.8,2.6.9,5.4,1.4,8.2,1.4,1.4,0,2.8-.1,4.1-.3,5.8-.7,11.1-4,14.2-9,.4-.6.8-1.2,1.1-1.9,3.3-6.2,4.9-15.1,4.9-26.7,0-12.4-2.1-21.9-6.2-28.3-.1-.2-.2-.4-.4-.6-2.5-3.7-5.7-6.3-9.6-7.7-2.6-.9-5.4-1.4-8.1-1.4-8.3,0-14.4,3.1-18.4,9.4-3,4.4-4.8,10.6-5.7,18.5Zm88.1,28.6l1.2-7.8c2.3.5,4.3.8,6,.8,4.1,0,7.9-1.7,10.7-4.6.3-.3.5-.5.8-.8,2.6-3,4.2-6.8,4.6-10.7.1-.9.2-1.9.2-2.8v-29.7h8.4v55.2h-6.9l-1-10.2h-.4c-.9,1.6-2,3.1-3.2,4.5s-2.7,2.7-4.2,3.8c-2.8,1.9-6.1,2.9-9.5,2.9-2.6,0-4.8-.2-6.7-.6Zm309.7,10.7h12.4v-58.8h-10.4c-2.9,0-5.8.2-8.6.7-6,1.1-10.8,3.3-14.4,6.8-2.8,2.8-4.9,6.2-6,10-1.1,3.6-1.7,7.6-1.7,12.3,0,6.6,1.1,12,3.4,16.4,1,2,2.3,3.8,3.9,5.4,4.1,4.1,9.9,6.5,17.3,7.1,1.4,0,2.7.1,4.1.1Zm40,12.1v-78.4h8.4v78.4h-8.4Zm23.8-59.1c-.5,2.8-.8,5.6-.8,8.4v1.3c.1,3.1.5,5.9,1.1,8.5,1,4.1,2.9,7.9,5.7,11,2.7,3.1,6.2,5.4,10.2,6.6,2.7.8,5.5,1.2,8.2,1.2,2,0,3.9-.2,5.8-.5,5-.8,9.5-3.3,12.9-7,1.1-1.2,2-2.5,2.8-3.9,1.5-2.5,2.5-5.4,3.2-8.7.5-2.8.8-5.6.8-8.4,0-2.3-.2-4.5-.5-6.8-.5-2.9-1.3-5.8-2.6-8.4-2.1-4.3-5-7.7-8.9-10-1.7-1-3.5-1.8-5.3-2.4-2.5-.7-5.2-1.1-7.8-1.1-8,0-14.3,2.5-18.8,7.6-3,3.2-5,7.5-6,12.6Zm-421.8,17.6c0-2.6-.1-5.3-.3-7.9-.5-6.7-1.7-11.9-3.5-15.5-.8-1.6-1.9-3.1-3.3-4.3-2.3-2-5.2-3-8.8-3-5,0-8.8,2-11.3,6.1-.3.4-.5.9-.8,1.4-.8,1.7-1.5,3.5-2,5.4-1.2,4.6-1.8,10.6-1.8,17.9,0,10.6,1.3,18.3,3.8,23.3,2.2,4.4,5.7,6.8,10.3,7.3.6.1,1.2.1,1.8.1,5,0,8.8-2,11.3-6,.3-.4.5-.8.7-1.3,2.1-4.1,3.3-10.1,3.7-18.3.2-1.8.2-3.5.2-5.2Zm296.7,18.3v-55.2h8.4v55.2h-8.4Zm-77.8,0v-55.2h8.4v55.2h-8.4Zm244.2-27.5c0-2-.1-4-.4-6s-.8-3.9-1.4-5.6c-.6-1.6-1.4-3.1-2.4-4.5-2.2-2.9-5.4-4.7-8.9-5.3-1.2-.2-2.3-.3-3.5-.3-1.7,0-3.5.2-5.1.6-2.9.8-5.5,2.5-7.3,4.9-2.1,2.7-3.4,6.4-4,11-.2,1.7-.3,3.4-.3,5.1,0,7,1.4,12.4,4.3,16,2.1,2.7,5.2,4.5,8.6,5.1,1.3.2,2.7.4,4,.4,1.7,0,3.3-.2,5-.6,3-.7,5.6-2.4,7.4-4.8,1.2-1.6,2.1-3.3,2.7-5.2.5-1.6.9-3.4,1.2-5.3,0-1.8.1-3.7.1-5.5Zm-299-2v1.8c0,6.6.9,11.7,2.8,15.1.3.6.7,1.1,1.1,1.7,2.3,3,5.9,4.6,10.7,5,.6,0,1.1.1,1.7.1,1.7,0,3.4-.3,5-.8,2.6-.9,4.7-2.6,6.2-4.9,1.9-2.8,3.1-6.5,3.6-11,.2-1.7.3-3.4.3-5.1,0-1.9-.1-3.9-.3-5.8-.5-4.2-1.7-7.6-3.5-10.1-2.1-3-5.5-4.9-9.1-5.3-.7-.1-1.5-.1-2.3-.1-1.5,0-3.1.1-4.6.4-1.7.3-3.2.8-4.5,1.5s-2.5,1.6-3.4,2.8c-2.5,2.8-3.7,7.8-3.7,14.7Zm-31.9,7.2h-28.9c0,1.5.1,3.1.3,4.6.5,3.1,1.6,5.6,3.2,7.5,1.8,2.1,4.2,3.5,6.9,3.9,1,.2,2.1.3,3.2.3,1.6,0,3.2-.2,4.8-.7,2.2-.7,4.3-1.9,5.8-3.7,1.4-1.6,2.6-3.5,3.3-5.5.7-1.9,1.1-4,1.4-6.4Zm-114.3-9.1H15.55v7.7H-9.15v-7.7Zm286.5,50.6c.4-.3.7-.8.9-1.2.4-.8.5-1.8.5-3v-.9c-.1-.6-.2-1.1-.3-1.5-.2-.7-.6-1.2-1.1-1.7s-1.1-.8-1.7-1.1c-.6-.2-1.2-.3-1.8-.3-1.3,0-2.5.5-3.5,1.4-.3.3-.6.7-.8,1.1-.2.5-.4,1-.5,1.6-.1.5-.1,1.1-.1,1.6v.9c.1,1.4.6,2.5,1.4,3.3.9.9,2.2,1.4,3.5,1.4h.4c1.1-.3,2.2-.8,3.1-1.6Zm-77.8,0c.4-.3.7-.8.9-1.2.4-.8.5-1.8.5-3v-.9c-.1-.6-.2-1.1-.3-1.5-.2-.7-.6-1.2-1.1-1.7s-1.1-.8-1.7-1.1c-.6-.2-1.2-.3-1.8-.3-1.3,0-2.5.5-3.5,1.4-.3.3-.6.7-.8,1.1-.2.5-.4,1-.5,1.6-.1.5-.1,1.1-.1,1.6v.9c.1,1.4.6,2.5,1.4,3.3.9.9,2.2,1.4,3.5,1.4h.4c1.1-.3,2.2-.8,3.1-1.6Z" vector-effect="non-scaling-stroke"/>
  </g>
</svg>