<?xml version="1.0" encoding="UTF-8"?>
<svg id="Layer_1" data-name="Layer 1" xmlns="http://www.w3.org/2000/svg" viewBox="0 0 1040.58 652.48">
  <defs>
    <style>
      .cls-1 {
        stroke-width: .28px;
      }

      .cls-1, .cls-2 {
        stroke-miterlimit: 11.34;
      }

      .cls-1, .cls-2, .cls-3 {
        stroke-linecap: round;
      }

      .cls-1, .cls-3 {
        fill: none;
        stroke: red;
      }

      .cls-2 {
        fill: #777;
        fill-rule: evenodd;
        stroke: #777;
        stroke-width: 2.01px;
      }

      .cls-3 {
        stroke-miterlimit: 11.34;
        stroke-width: .28px;
      }
    </style>
  </defs>
  <g id="svgGroup">
    <path id="Front_outsideCutPath" data-name="Front outsideCutPath" class="cls-1" d="m1012.14,8.64h-17V.14h-17v8.5h-17V.14h-17v8.5h-17V.14h-17v8.5h-17V.14h-17v8.5h-17V.14h-17v8.5h-17V.14h-17v8.5h-17V.14h-17v8.5h-17V.14h-17v8.5h-17V.14h-17v8.5h-17V.14h-17v8.5h-17V.14h-17v8.5h-17V.14h-17v8.5h-17V.14h-17v8.5h-17V.14h-28.6v28.6h8.5v17h-8.5v17h8.5v17h-8.5v17h8.5v17h-8.5v17h8.5v17h-8.5v17h8.5v17h-8.5v17h8.5v17h-8.5v17h8.5v17h-8.5v17h8.5v17h-8.5v17h8.5v17h-8.5v17h8.5v17h-8.5v17h8.5v17h-8.5v17h8.5v17h-8.5v17h8.5v17h-8.5v17h8.5v17h-8.5v17h8.5v17h-8.5v17h8.5v17h-8.5v17h8.5v17h-8.5v17h8.5v17h-8.5v28.4h253.7v-321.7h8.5v321.7h253.7v-28.6h-8.5v-17h8.5v-17h-8.5v-17h8.5v-17h-8.5v-17h8.5v-17h-8.5v-17h8.5v-17h-8.5v-17h8.5v-17h-8.5v-17h8.5v-17h-8.5v-17h8.5v-17h-8.5v-17h8.5v-17h-8.5v-17h8.5v-17h-8.5v-17h8.5v-17h-8.5v-17h8.5v-17h-8.5v-17h8.5v-17h-8.5v-17h8.5v-17h-8.5v-17h8.5v-17h-8.5v-17h8.5v-17h-8.5v-17h8.5v-17h-8.5v-17h8.5v-17h-8.5v-17h8.5V.14h-28.6v8.5h.3,0Z" vector-effect="non-scaling-stroke"/>
    <path id="Front_labelLayer" data-name="Front labelLayer" class="cls-2" d="m702.74,289.84h8.4v35.7c0,1.2.1,2.5.3,3.7.2,1.3.5,2.5,1,3.5.4,1.1,1.1,2,1.8,2.9,1.1,1.1,2.4,2,3.9,2.5,1.6.6,3.5.9,5.8.9,1.6,0,3.2-.1,4.7-.4,3.4-.7,6.1-2.1,8-4.3,1-1.2,1.8-2.6,2.4-4.2,1-2.5,1.5-5.7,1.6-9.5v-30.8h8.4v55.2h-6.8l-1.4-7.6h-.4c-1.6,2.6-3.9,4.7-6.6,6l-.6.3c-2.5,1.2-5.3,1.9-8.1,2.1-.8.1-1.5.1-2.3.1-1.9,0-3.8-.1-5.6-.4-3.9-.7-7.1-2.1-9.4-4.4-1.6-1.6-2.8-3.5-3.5-5.5-1-2.7-1.5-6-1.5-9.8v-36h-.1Zm194,31.5v-31.5h8.6v73.7h-41.1v-7.6h32.5v-27h-30.5v-7.6h30.5Zm-236.6-24.6v-6.4c.3-.2.6-.3,1-.4.8-.3,1.8-.5,3-.7.8-.1,1.6-.2,2.4-.3.8-.1,1.6-.1,2.4-.1,8.5,0,13.6,3.6,15.4,10.7.5,2,.7,4.1.7,6.1v32.9h7.9v4l-7.9,3.5-3.5,11.8h-4.8v-12.8h-16v-6.5h16v-32.5c0-1-.1-2-.2-3-.2-1.1-.5-2.1-.9-2.9-.3-.6-.7-1.3-1.2-1.8-1.6-1.8-3.7-2.7-6.5-2.7-1.3,0-2.7.1-4,.3h-.3c-.4.1-.8.1-1.2.2-1.1.2-1.7.4-2.3.6h0Zm161.4,48.7l1.2-7.8c2.3.5,4.3.8,6,.8,4.1,0,7.9-1.7,10.7-4.6l.8-.8c2.6-3,4.2-6.8,4.6-10.7.1-.9.2-1.9.2-2.8v-29.6h8.4v55.2h-6.9l-1-10.2h-.4c-.9,1.6-2,3.1-3.2,4.5s-2.7,2.7-4.2,3.8c-2.8,1.9-6.1,2.9-9.5,2.9-2.6-.1-4.8-.3-6.7-.7h0Zm-57.2-36.4c-.5,2.8-.8,5.6-.8,8.4v1.3c.1,3.1.5,5.9,1.1,8.5,1,4.1,2.9,7.9,5.7,11,2.7,3.1,6.2,5.4,10.2,6.6,2.7.8,5.5,1.2,8.3,1.2,2,0,3.9-.2,5.8-.5,5-.8,9.5-3.3,12.9-7,1.1-1.2,2-2.5,2.8-3.9,1.5-2.5,2.5-5.4,3.1-8.7.5-2.8.8-5.6.8-8.4,0-2.3-.2-4.5-.5-6.8-.5-2.9-1.3-5.8-2.6-8.4-2.1-4.3-5-7.7-8.9-10-1.7-1-3.5-1.8-5.3-2.4-2.5-.7-5.2-1.1-7.8-1.1-8,0-14.3,2.5-18.8,7.6-3,3.3-5,7.5-6,12.6h0Zm41.3,8.4c0-2-.1-4-.4-6s-.8-3.9-1.4-5.6c-.6-1.6-1.4-3.1-2.5-4.5-2.2-2.9-5.4-4.7-8.9-5.3-1.2-.2-2.3-.3-3.5-.3-1.7,0-3.5.2-5.1.6-2.9.8-5.5,2.5-7.3,4.9-2.1,2.7-3.4,6.4-4,11-.2,1.7-.3,3.4-.3,5.1,0,7,1.4,12.4,4.3,16,2.1,2.7,5.2,4.5,8.6,5.1,1.3.2,2.7.4,4,.4,1.7,0,3.3-.2,5-.6,3-.7,5.6-2.4,7.4-4.8,1.2-1.6,2.1-3.3,2.7-5.2.5-1.6.9-3.4,1.2-5.3,0-1.8.2-3.6.2-5.5h0Z" vector-effect="non-scaling-stroke"/>
    <path id="Left_outsideCutPath" data-name="Left outsideCutPath" class="cls-1" d="m470.74,8.64h-17V.14h-17v8.5h-17V.14h-17v8.5h-17V.14h-17v8.5h-17V.14h-17v8.5h-17V.14h-17v8.5h-17V.14h-17v8.5h-17V.14h-17v8.5h-17V.14h-17v8.5h-17V.14h-17v8.5h-17V.14h-17v8.5h-17V.14h-17v8.5h-17V.14h-17v8.5h-17V.14h-17v8.5H8.64v20.1H.14v17h8.5v17H.14v17h8.5v17H.14v17h8.5v17H.14v17h8.5v17H.14v17h8.5v17H.14v17h8.5v17H.14v17h8.5v17H.14v17h8.5v17H.14v17h8.5v17H.14v17h8.5v17H.14v17h8.5v17H.14v17h8.5v17H.14v17h8.5v17H.14v17h8.5v17H.14v17h8.5v17H.14v17h8.5v17H.14v17h8.5v17H.14v17h8.5v28.6h245.2v-321.7h8.5v321.5h245.2v-28.6h8.5v-17h-8.5v-17h8.5v-17h-8.5v-17h8.5v-17h-8.5v-17h8.5v-17h-8.5v-17h8.5v-17h-8.5v-17h8.5v-17h-8.5v-17h8.5v-17h-8.5v-17h8.5v-17h-8.5v-17h8.5v-17h-8.5v-17h8.5v-17h-8.5v-17h8.5v-17h-8.5v-17h8.5v-17h-8.5v-17h8.5v-17h-8.5v-17h8.5v-17h-8.5v-17h8.5v-17h-8.5v-17h8.5v-17h-8.5v-17h8.5v-17h-8.5v-17h8.5v-17h-8.5V8.64h-20.1V.14h-17v8.5h.3Z" vector-effect="non-scaling-stroke"/>
    <path id="Left_labelLayer" data-name="Left labelLayer" class="cls-2" d="m208.54,342.34v-6.5h14.1v-48.7h8.4v48.7h9.9v3.8l-9.9,3v3.1c0,2.6-.2,5.2-.8,7.7-1.6,7-5.8,11.1-12.5,12.3-1.5.3-3,.4-4.5.4-2.9,0-6.3-.6-10.3-1.8l2.2-6.7c1,.3,2.1.6,3.2.9,1.1.2,2.1.4,3,.5.7.1,1.4.1,2.1.1.9,0,1.8-.1,2.7-.3,1.7-.4,3.3-1.4,4.3-2.8,1.4-1.9,2.1-4.9,2.2-8.8v-4.9h-14.1,0Zm39.1-23.8v-5.3h38c-.2-6.5-1.8-11.4-4.9-14.8-2.1-2.3-4.9-3.9-8-4.5-1.7-.4-3.4-.6-5.1-.5-5.7,0-11.3,1.1-16.5,3.3-.4.1-.7.3-1.1.5v-7.5c1.5-.7,3-1.2,4.6-1.7,1.3-.4,2.5-.7,3.8-1,1.2-.2,2.3-.4,3.5-.5,1.1-.1,2.4-.2,3.7-.3h2.4c8.2,0,14.6,2.5,19.3,7.5,2.8,3,4.9,6.8,5.9,10.8.7,2.6,1.1,5.3,1.2,8.4v1.5c0,8.9-2.2,16-6.6,21.2-3.9,4.7-9.5,7.5-15.6,7.8-.7,0-1.4.1-2,.1-2.4,0-4.8-.3-7.2-1-3.6-1-6.8-3.1-9.2-5.9-2.7-3-4.5-6.7-5.3-10.7-.7-2.5-.9-4.9-.9-7.4h0Zm54.9-31.4h41.1v73.7h-8.6v-65.9h-32.5v-7.8Zm-129.5,6.9v-6.4c.3-.1.6-.3,1-.4.8-.3,1.8-.5,3-.7.8-.1,1.6-.2,2.4-.3.8-.1,1.6-.1,2.4-.1,8.5,0,13.6,3.6,15.4,10.7.5,2,.7,4.1.7,6.1v32.9h7.9v4l-7.9,3.5-3.5,11.8h-4.8v-12.8h-16v-6.5h16v-32.5c0-1-.1-2-.2-3-.2-1.1-.5-2-.9-2.9-.3-.6-.7-1.3-1.2-1.8-1.6-1.8-3.7-2.7-6.5-2.7-1.3,0-2.7.1-4,.3h-.3c-.4.1-.8.1-1.2.2-1.1.3-1.8.5-2.3.6h0Zm112.4,26h-28.9c0,1.5.1,3.1.3,4.6.5,3.1,1.6,5.6,3.2,7.5,1.8,2.1,4.2,3.5,6.9,3.9,1,.2,2.1.3,3.2.3,1.6,0,3.2-.2,4.8-.7,2.2-.7,4.3-1.9,5.8-3.7,1.4-1.6,2.6-3.5,3.3-5.5.8-1.8,1.2-4,1.4-6.4h0Z" vector-effect="non-scaling-stroke"/>
  </g>
  <circle class="cls-1" cx="72.84" cy="73.14" r="56.7"/>
  <circle class="cls-1" cx="192.64" cy="73.14" r="56.7"/>
  <path class="cls-1" d="m383.84,73.14c0,31.3-26.6,56.7-57.9,56.7s-56.7-25.4-56.7-56.7,25.4-56.7,56.7-56.7,57.9,25.4,57.9,56.7Z"/>
  <circle class="cls-3" cx="447.54" cy="73.14" r="56.7" transform="translate(79.36 337.88) rotate(-45)"/>
</svg>